<svg width="92" height="24" viewBox="0 0 92 24" fill="none" xmlns="http://www.w3.org/2000/svg">
<path fill-rule="evenodd" clip-rule="evenodd" d="M20.9383 1.85913C22.173 2.3339 22.1617 2.31956 23.4126 2.78926C23.7853 2.92918 27.2996 4.98143 27.4347 5.20721C30.5239 10.3701 30.0769 11.3717 29.8452 11.8907C27.6361 16.84 27.711 16.8797 27.4305 17.2578C27.3717 17.337 23.0834 21.0632 22.9486 21.1388C19.4251 23.1148 17.3753 22.894 16.8735 22.84C14.2221 22.5544 14.2354 22.9269 11.5721 22.9367C11.013 22.9388 7.62912 21.8758 6.71109 20.9094C3.38333 17.4062 2.87686 16.1915 2.06659 12.8676C1.98007 12.5569 1.90414 12.5013 2.02677 12.4988C2.10991 12.4971 2.09134 12.5346 2.50377 13.2922C3.35389 14.8537 6.24131 17.364 8.04458 17.6928C8.83664 17.8373 8.75488 17.9953 9.29516 18.5929C11.3499 20.8656 14.4677 21.9458 14.706 21.9814C14.4098 21.994 14.4211 22.0488 14.1325 22.0059C12.2809 21.7306 12.2845 21.7171 12.0161 21.7091C11.5351 21.5716 11.2123 21.44 11.1441 21.4122C10.6359 21.1916 7.41548 19.7932 5.4218 17.5114C1.68469 13.2341 6.04196 18.7291 7.00728 19.5473C9.97847 22.0659 11.1104 22.1671 14.8332 22.2106C14.8547 22.1817 14.8762 22.1528 14.8977 22.1239C14.9106 21.9504 14.9086 21.9437 14.7563 21.8722C8.70882 19.1554 8.35544 16.6293 7.56674 14.9143C7.24684 14.2186 6.06796 13.8121 5.60873 13.3565C3.47979 11.2446 3.45272 10.1511 3.23511 8.27921C2.94638 5.79569 3.11976 5.79246 3.86436 3.40748L3.89833 3.15837L3.97367 3.11944C3.97871 3.12148 4.04869 3.03113 4.0577 3.15361C4.13088 4.14663 4.11362 4.13171 4.12531 4.21607C4.27256 5.27986 4.44971 5.20489 5.17165 6.01346C6.62393 7.63998 5.45758 9.57777 6.64797 13.0376C7.86629 16.5785 6.53817 11.6696 6.52388 11.5448C5.69057 4.26781 7.41851 1.47723 14.4921 0.436313C15.0022 0.361247 18.4461 -0.145551 20.7402 2.02011C21.6881 3.1033 21.7893 3.24533 21.8707 3.35953C22.6295 4.42436 23.0187 4.01254 23.8123 5.03638C25.1263 6.73142 25.3151 6.59104 25.3543 6.77262C25.392 6.94717 25.4085 7.12621 25.4528 7.29918C25.5278 7.59191 25.8661 8.24644 25.6838 8.32202C24.6905 8.73389 25.3417 7.19099 24.7209 6.69934C22.6875 5.08886 22.9438 4.77222 22.7216 4.74844C22.7407 4.80517 22.7599 4.86193 22.779 4.91866C23.4034 6.06288 24.5188 6.86042 24.7029 6.99201C24.7105 6.99749 25.0891 8.45858 24.9635 8.59819C24.7817 8.80019 24.5623 9.17038 24.228 8.43762C23.98 7.89398 24.7331 7.34695 24.2972 7.28059C22.895 7.06716 23.1587 5.16894 22.7076 5.45558C22.3307 5.69506 21.1643 5.0048 21.9568 5.55967C22.5936 6.00556 22.7783 5.81067 23.1312 6.51677C23.5844 7.42372 24.0243 7.25439 23.996 8.27351C23.9816 8.79564 24.8058 8.93212 23.9211 9.83907C23.8199 9.94281 23.3826 9.67282 23.7726 8.19012C23.8983 7.71219 23.3901 8.00719 23.1743 7.55251C22.756 6.67153 22.8841 6.63825 22.8549 6.41815C22.853 6.40417 21.2272 5.89645 21.3165 5.00831C21.3396 4.77876 20.7179 3.90634 21.3787 4.29768C21.4422 4.33529 22.7489 5.10917 22.2617 4.56421C22.249 4.55005 21.2227 4.10907 20.8565 3.41331C20.8023 3.31042 20.845 3.31915 20.9437 3.26817C20.9736 3.2891 21.6402 3.75544 21.3749 3.41744C21.3391 3.37181 21.0896 3.15771 21.0641 3.13586C20.4672 2.61735 19.9783 2.58232 19.8732 2.5748C15.9697 2.29514 15.9562 2.24207 15.6517 2.389C10.9319 4.66665 10.7129 4.44506 7.17997 8.2964C7.02617 8.46405 6.84915 8.53329 6.9629 10.6629C6.96998 10.7956 7.52617 12.6032 7.4674 12.7643C7.25802 13.3383 7.25608 13.3381 7.40377 13.932C7.46776 14.067 7.59329 14.345 7.77775 13.9093C8.04305 14.3038 8.85376 15.9604 9.75073 17.622C10.1213 18.3086 16.2403 21.8864 16.2477 21.8756C16.6867 21.2389 12.7316 20.2779 12.0809 18.4421C11.0321 15.4832 11.5591 15.3744 13.4464 9.07382C13.4697 9.04515 13.4588 9.05776 13.5972 8.9875C15.0694 11.7908 15.4898 11.9707 16.0407 12.6345C16.248 12.8843 18.021 15.0204 17.93 16.2251C17.7918 18.0547 16.3378 20.3125 16.3424 20.3773C16.4414 21.7689 17.1187 21.5163 17.1373 21.5176C18.4988 21.4192 19.7837 21.5235 20.3955 20.7227C20.4691 20.7726 20.5227 20.9882 20.825 20.7057C22.1334 19.4829 21.0082 18.7647 20.9487 18.69C20.3545 18.172 20.2512 18.2199 20.0803 17.4555C19.4097 14.4567 21.0437 14.4039 22.8001 13.776C23.7474 13.4373 22.9049 12.5524 22.9383 11.5396C22.9508 11.1588 25.0996 8.77723 25.3715 8.66328C27.9795 7.57047 26.4623 10.6019 26.4082 11.536C26.3746 11.6253 26.3411 11.7146 26.3076 11.8039C26.2754 11.8925 26.2432 11.9811 26.2111 12.0697C26.2039 12.7272 26.0987 12.9376 26.7408 12.9973C26.7965 13.0294 27.5745 13.4783 27.5123 13.2202C27.4202 12.8384 26.8119 12.8888 26.4962 11.5486C26.5999 11.3069 27.7888 8.53695 26.5923 8.26251C26.4699 8.23442 25.3379 7.9748 25.6124 7.03591C25.8681 6.16153 27.1814 6.12122 26.4974 6.08424C26.0361 6.05932 25.6023 7.0721 24.5997 5.76542C23.4408 4.25488 23.2805 4.29547 23.3052 3.59594C23.33 2.89569 23.1547 4.13097 22.7983 4.0007C22.0493 3.72684 22.3143 3.43254 21.2019 2.267C21.0235 2.08008 20.9803 2.11262 20.9384 1.85921L20.9383 1.85913ZM12.7118 1.72886C15.2048 0.687942 15.9715 1.02477 18.7341 1.62568C19.1081 1.70704 21.433 2.7489 19.7931 2.24416C16.2646 1.15825 15.3337 0.884214 12.8087 1.92465C12.7989 1.91016 12.8091 1.92523 12.7118 1.72886ZM13.5853 14.1067C13.5433 13.007 13.318 9.45702 13.6344 12.0619C13.7493 13.008 14.1561 15.6512 14.4255 16.6411C14.3692 16.6096 14.3129 16.5781 14.2566 16.5467C13.6289 14.1864 13.6433 14.1791 13.5853 14.1067ZM11.3789 2.308C11.2593 2.43002 8.43463 4.05682 7.87744 5.37466C7.86517 5.40368 7.95966 5.40918 7.94739 5.43821C7.8645 5.41351 7.78162 5.38884 7.69874 5.36414C8.35742 3.94142 8.48451 4.0213 9.74284 3.09882C10.5884 2.47893 11.2368 2.33871 11.3789 2.308ZM13.7448 15.7797C13.7834 15.8002 13.8193 15.6927 13.8579 15.7131C13.8933 15.7319 13.9448 16.0214 13.9497 16.0488C14.2714 17.8574 16.6524 22.8125 15.3809 20.3712C13.8952 17.5184 13.7535 15.8241 13.7448 15.7797ZM4.98151 8.27086C4.48024 8.1 4.79359 8.49677 4.94248 9.42423C4.99399 9.86332 5.08561 9.85619 4.94233 10.2265C4.64692 9.64642 4.79097 8.62641 4.09305 6.76478C2.76671 3.2269 4.92527 8.14278 4.98151 8.27086ZM9.62891 3.76499L9.71735 3.85785C9.35358 4.23861 7.98729 5.51585 7.45908 6.45947C6.58884 8.01414 7.66408 5.4469 7.69874 5.36417C7.78162 5.38886 7.8645 5.41351 7.94739 5.43821C9.37652 3.77339 9.47412 3.88421 9.62891 3.76499ZM25.8946 10.82C25.471 10.5552 25.4637 10.5929 25.0123 10.3751C24.7637 10.2551 25.8848 8.3199 25.5967 9.15475C25.5659 9.24392 24.4314 12.9167 26.4389 9.97996C26.6688 9.64367 26.4017 11.0402 25.8946 10.82ZM25.5631 15.2433L25.7154 15.3453C25.3904 16.1767 25.2953 16.1123 24.8896 16.9121C24.7752 16.877 24.7792 16.8947 24.7384 16.8436C24.9681 16.301 24.9656 16.3174 25.1382 15.7618C25.6303 15.7361 25.4591 15.4921 25.5631 15.2433ZM26.0174 14.0056C26.0426 14.0612 26.0679 14.1168 26.0932 14.1724C25.9357 14.5478 25.9158 14.523 25.7154 15.3453L25.5631 15.2433C25.5126 15.1832 25.4621 15.123 25.4116 15.0628C25.9676 14.0833 25.9545 14.0801 26.0174 14.0056ZM5.23951 9.5082C5.35799 10.2251 5.31921 10.2178 5.45944 10.9209C5.25461 11.3969 5.16783 10.3576 5.16327 10.303C5.09676 9.58271 5.21422 9.60046 5.23951 9.5082ZM26.0174 14.0056C26.2021 13.6971 26.2482 13.4936 26.2866 13.6879C26.3029 13.7706 26.4691 14.6127 26.4292 14.7318C26.2593 15.2385 26.1012 14.2239 26.0932 14.1724C26.0679 14.1168 26.0426 14.0612 26.0174 14.0056V14.0056ZM4.98154 8.27086L5.1412 8.97844C5.12016 9.07441 5.03939 9.00001 5.01676 9.10328C4.9874 9.23722 5.09037 9.21721 5.06104 9.34404C5.05029 9.39051 4.95325 9.37773 4.9425 9.4242C4.79365 8.49675 4.48027 8.09998 4.98154 8.27084V8.27086ZM12.7118 1.72886C12.8091 1.92523 12.799 1.91018 12.8088 1.92467C11.7433 2.19744 11.7566 2.18824 11.5824 2.24666C11.6077 1.91283 12.6477 1.74213 12.7118 1.72886ZM5.1412 8.97846C5.17397 9.15505 5.20674 9.33164 5.23951 9.5082C5.21422 9.60046 5.09676 9.58271 5.16327 10.303C5.0274 10.2827 5.02401 10.3224 4.94233 10.2265C5.08561 9.85619 4.99399 9.86332 4.94248 9.42423C4.95322 9.37775 5.05027 9.39054 5.06101 9.34407C5.09034 9.21723 4.98737 9.23725 5.01673 9.10331C5.03937 9.00003 5.12014 9.07443 5.14117 8.97846H5.1412ZM25.4116 15.0628C25.4621 15.123 25.5126 15.1832 25.5632 15.2434C25.4592 15.4921 25.6303 15.7361 25.1382 15.7618C25.2547 15.3945 25.2366 15.4098 25.4116 15.0628ZM14.2567 16.5467C14.313 16.5782 14.3693 16.6097 14.4256 16.6412C14.4361 16.6775 14.955 18.465 14.4202 17.1138C14.4028 17.0699 14.4587 17.0716 14.2567 16.5467Z" fill="black"/>
<path fill-rule="evenodd" clip-rule="evenodd" d="M53.1448 9.8382C53.2943 9.30658 54.6517 6.30029 54.7847 6.16865C56.3362 4.63254 57.4144 5.02109 57.699 5.70654C59.7739 10.7046 59.7338 10.9233 59.3389 11.1486C57.963 11.9334 57.9125 9.86957 56.8009 9.94C54.998 10.0543 55.3881 10.7625 55.0277 11.0019C54.419 11.4063 53.3775 10.8578 53.2509 10.7911C53.2082 10.7686 52.7641 11.5562 51.0523 11.3161C50.2027 11.1969 50.9328 8.82002 48.9325 9.40693C48.3262 9.58484 49.1533 11.7182 47.6071 11.3003C47.5568 11.2867 47.1615 11.1798 47.1463 10.8401C46.9138 5.64104 46.8304 5.55467 47.1818 5.28227C47.6959 4.88376 53.2054 4.69999 52.077 7.63806C51.9777 7.89662 51.4846 8.37433 51.8651 8.61224C52.61 9.07794 52.6488 9.05836 53.0341 9.83693C53.0381 9.84487 53.0341 9.83693 53.1448 9.8382H53.1448ZM48.8902 7.39336C48.905 7.27281 49.0582 6.02625 50.3259 6.8997C51.4899 7.70167 48.9648 8.79901 48.8902 7.39336ZM56.4461 7.51553C57.5434 7.81241 57.319 8.79199 56.4439 8.55159C55.9271 8.4096 55.1545 7.56745 56.4461 7.51553Z" fill="black"/>
<path fill-rule="evenodd" clip-rule="evenodd" d="M11.9047 10.6434C10.788 11.8206 10.9159 12.0063 9.43172 12.6523C8.8659 12.8986 7.99991 13.0753 7.65664 13.7398L7.60699 13.7659C7.36913 13.3129 7.42757 13.2949 7.64067 12.8514C8.14821 11.7953 5.83389 11.2462 8.33768 7.86137C8.91168 7.0854 9.46197 6.27388 13.6197 4.33515C14.0954 4.11331 15.4254 3.49313 20.1396 3.59605C21.8881 3.63422 19.3697 3.61347 18.3899 4.06814C16.6145 4.89198 15.942 5.75089 11.9047 10.6433L11.9047 10.6434ZM12.7875 6.21552C12.9732 6.10789 16.1522 4.26472 15.1742 4.99198C13.5127 6.22751 13.4861 6.16801 10.8773 8.2079C10.8763 8.161 10.7833 8.15102 10.7823 8.10411C10.7782 7.91321 10.8792 7.97519 12.6375 6.60244C12.6875 6.47346 12.7375 6.34449 12.7875 6.21552ZM10.6023 8.45291C9.52193 9.75233 9.50388 9.71893 8.7853 10.6994C5.96775 14.544 9.75734 8.82786 9.85864 8.67508C10.0815 8.7353 10.0793 8.70477 10.2594 8.57063C10.4185 8.44295 10.4053 8.42582 10.6023 8.45291ZM12.7875 6.21552C12.7375 6.34449 12.6875 6.47346 12.6375 6.60244C12.4 6.61636 12.0372 6.63763 10.2634 8.39205C10.2634 8.39205 10.2597 8.55634 10.2594 8.57063C10.0792 8.70479 10.0815 8.73533 9.85866 8.67508C10.8938 7.38159 11.1979 7.18216 12.7876 6.21549L12.7875 6.21552ZM12.6375 6.60244C10.8792 7.97519 10.7782 7.91321 10.7823 8.10411C10.7833 8.15102 10.8763 8.161 10.8773 8.2079L10.6023 8.45291C10.4053 8.42582 10.4185 8.44295 10.2594 8.57063C10.2597 8.55634 10.2634 8.39205 10.2634 8.39205C12.0372 6.63763 12.4 6.61634 12.6375 6.60244H12.6375Z" fill="black"/>
<path fill-rule="evenodd" clip-rule="evenodd" d="M39.8211 6.69659C39.9701 6.96741 40.979 8.80113 39.5484 10.5508C39.3789 10.7581 38.6056 11.7039 36.3052 11.3773C35.2815 11.232 35.3225 11.093 34.273 11.0367C33.0786 10.9727 33.478 10.4434 33.4792 9.24657C33.4826 5.90113 33.319 5.09789 34.0138 5.04159C38.1464 4.70677 39.1622 5.84575 39.4584 6.17782C39.4921 6.21561 39.4852 6.21624 39.8211 6.69656V6.69659ZM36.4792 6.28293C36.5482 6.29195 38.0166 6.11032 37.7452 7.75018C37.4916 9.28323 33.7371 11.2391 34.0392 7.92578C34.0502 7.80447 34.1564 6.63962 34.3819 6.44233C34.6625 6.19687 36.3111 6.27499 36.4792 6.28296L36.4792 6.28293Z" fill="black"/>
<path fill-rule="evenodd" clip-rule="evenodd" d="M76.543 7.12413C76.7035 9.55565 77.3637 10.9549 74.8243 11.214C73.6065 11.3382 74.1006 8.73489 73.4924 9.86129C73.1343 10.5247 73.0342 11.4473 71.985 11.1283C71.5118 10.9845 70.7057 8.11654 70.6544 10.6596C70.6404 11.3569 69.2857 11.5479 69.2607 10.4832C69.1428 5.46351 69.2779 5.32336 69.6906 5.24109C72.2262 4.73554 71.3318 8.32424 72.3561 7.93651C72.812 7.7639 72.9257 5.24404 74.3823 5.21939C76.249 5.18779 76.3713 5.58038 76.543 7.12415L76.543 7.12413Z" fill="black"/>
<path fill-rule="evenodd" clip-rule="evenodd" d="M81.4512 5.26298C85.132 7.66634 82.3564 11.1051 80.4784 11.3804C75.7375 12.0753 75.635 3.25351 81.4512 5.26298ZM80.8629 9.82032C77.4869 11.1835 77.8482 5.43216 80.4834 6.30991C81.3303 6.59202 81.617 9.26618 80.8629 9.82032Z" fill="black"/>
<path fill-rule="evenodd" clip-rule="evenodd" d="M46.8206 13.6224C52.6392 14.2831 48.8761 22.4257 44.7954 19.3946C43.25 18.2467 42.4041 13.7577 46.8206 13.6224ZM46.5556 14.853C47.0364 14.946 47.7933 14.766 47.8367 16.6682C47.8538 17.4155 47.9812 18.318 47.2674 18.5404C44.5422 19.3897 44.2174 15.1733 46.5556 14.853L46.5556 14.853Z" fill="black"/>
<path fill-rule="evenodd" clip-rule="evenodd" d="M84.9546 14.0596C86.6681 14.9107 85.6362 16.6519 85.5202 16.8477C85.2596 17.2873 86.3613 17.3536 86.8063 18.3609C87.5875 20.1289 85.7231 19.9985 84.9807 19.9695C83.9813 19.9304 84.6685 18.1249 83.3957 17.9682C82.0313 17.8001 82.4804 19.0709 82.4366 19.496C82.3894 19.9548 81.5916 20.1237 81.1226 19.8101C80.9209 19.6751 80.8995 18.2203 80.8975 18.0808C80.8637 15.7797 80.4757 15.7874 80.7915 14.1846C80.8635 13.8192 81.7741 13.3602 84.9546 14.0596ZM83.5643 16.6265C82.6637 16.6063 82.4148 16.4208 82.7462 15.5958C83.094 14.73 85.8165 15.976 83.5643 16.6265Z" fill="black"/>
<path fill-rule="evenodd" clip-rule="evenodd" d="M61.6136 15.5191C61.5793 18.7466 61.7131 19.6976 60.1624 19.8735C58.0656 20.1113 59.4065 17.4858 58.1245 17.6045C56.0497 17.7965 57.5158 19.3127 56.6974 19.7234C56.2493 19.9483 55.4815 19.7851 55.4454 19.3214C55.336 17.9192 55.3534 16.672 55.4552 14.3683C55.4851 13.694 56.976 13.5027 56.9814 14.5468C56.9836 14.9606 56.5124 15.8915 58.3039 15.9648C59.429 16.0109 58.0934 13.817 59.9834 13.7888C61.8524 13.7609 61.61 15.4415 61.6136 15.519L61.6136 15.5191Z" fill="black"/>
<path fill-rule="evenodd" clip-rule="evenodd" d="M87.72 11.4957C87.0709 11.4883 85.8801 11.72 84.2916 10.8091C82.9646 10.0482 83.224 8.76819 84.3498 9.27382C84.6008 9.38652 85.3215 10.5829 86.726 9.91234C87.5538 9.51715 85.9666 9.06433 85.8726 9.03752C81.1855 7.70029 84.0741 3.55449 87.2864 5.256C88.5216 5.91026 88.4659 7.08799 87.4639 6.81841C87.4193 6.80644 85.3724 5.69041 85.017 6.52138C84.5839 7.53406 89.1785 6.28233 89.5921 9.42138C89.8518 11.3922 87.9433 11.4849 87.72 11.4958V11.4957Z" fill="black"/>
<path fill-rule="evenodd" clip-rule="evenodd" d="M66.1642 19.9753C63.7961 19.787 62.6589 19.8346 62.5865 19.2251C62.4758 18.2943 62.3898 18.33 62.0135 17.4621C61.6786 16.6898 62.3975 14.1875 62.4726 14.0238C62.6082 13.7282 62.7395 13.4418 66.5255 13.7183C67.1341 13.7628 67.2602 14.4637 67.0129 14.6898C66.7769 14.9057 65.3408 14.9121 65.1942 14.9127C63.8985 14.9185 64.4224 16.024 65.282 16.0181C67.4131 16.0034 66.5313 17.0221 66.4177 17.0717C65.9624 17.2706 65.305 16.8185 65.4868 17.8985C65.5961 18.5482 68.3423 17.7093 68.0382 19.2331C67.8025 20.4148 66.3378 20.0014 66.1641 19.9753L66.1642 19.9753Z" fill="black"/>
<path fill-rule="evenodd" clip-rule="evenodd" d="M46.7728 10.7473C46.6644 11.5211 45.4297 11.4438 45.0461 10.7518C44.9642 10.604 44.8269 9.58383 43.1176 10.0746C42.1751 10.3451 42.5939 11.1372 41.6061 11.1538C39.1118 11.1956 40.9372 8.71899 41.5604 6.96201C42.2022 5.15279 44.4464 4.68299 44.8354 5.55817C44.977 5.87679 44.9299 5.8773 46.4866 9.59169C46.7177 10.1431 46.6637 10.1477 46.7728 10.7473ZM43.7232 7.51892C44.735 7.85158 44.5748 8.81437 43.6357 8.54831C43.4958 8.50869 41.9946 7.64881 43.7232 7.51892Z" fill="black"/>
<path fill-rule="evenodd" clip-rule="evenodd" d="M34.8061 18.5626C33.6459 18.7189 33.524 18.6658 33.1374 19.4997C33.1242 19.5281 29.7517 20.9373 31.6766 17.178C32.1156 16.3207 32.5996 14.0431 34.5375 13.7322C35.6277 13.5572 35.4369 14.1038 36.9845 17.5639C37.2386 18.1321 38.2314 20.0442 36.6629 19.9171C35.4569 19.8193 36.0074 18.7632 34.8061 18.5626ZM33.9412 16.9138C33.3339 16.0162 34.547 15.9977 34.888 16.3202C35.5165 16.9144 34.9301 17.598 33.9412 16.9138Z" fill="black"/>
<path fill-rule="evenodd" clip-rule="evenodd" d="M74.1514 18.1247C74.2874 18.0487 75.0916 16.3206 75.2291 15.9476C76.3248 12.9756 78.4103 13.6294 78.6964 14.3751C80.5104 19.103 81.1302 19.8153 79.8557 19.9176C78.9773 19.9881 78.6708 19.0367 78.581 18.904C78.1046 18.1996 76.3264 18.7537 76.2304 19.1382C75.9707 20.1783 74.29 20.0485 74.1616 18.9743C74.1913 18.5359 74.2304 18.5502 74.1514 18.1246L74.1514 18.1247ZM77.7377 17.2289C77.6414 17.2161 76.7539 17.0983 76.774 16.4905C76.8094 15.4202 79.2996 16.9541 77.7377 17.2289Z" fill="black"/>
<path fill-rule="evenodd" clip-rule="evenodd" d="M66.3411 9.37663C65.2747 9.39071 65.2808 9.3805 65.1894 9.39186C64.5173 9.47515 65.1655 10.8089 64.5771 11.1045C63.4 11.6958 63.3175 10.344 63.3099 10.2206C63.0117 5.33885 63.4725 5.24873 63.874 5.22085C67.5046 4.96866 68.7813 5.67135 68.955 7.1315C69.2473 9.58983 67.0868 9.36066 66.3411 9.37665V9.37663ZM65.6345 7.52867C65.576 7.52962 64.4011 7.73694 64.1957 7.22456C63.6449 5.85005 67.8215 6.17973 66.6681 7.272C66.4424 7.48574 66.408 7.4052 65.6345 7.5287V7.52867Z" fill="black"/>
<path fill-rule="evenodd" clip-rule="evenodd" d="M37.7664 16.5771C37.8343 15.2711 37.8357 15.2796 37.8397 15.1667C37.866 14.4306 37.8411 14.4355 37.8435 14.3719C37.8528 14.1167 37.8706 13.6306 40.989 13.8258C42.4644 13.9181 43.3222 14.8485 43.4188 15.5257C43.8843 18.7877 40.8668 17.7937 39.671 18.0251C39.0016 18.1546 39.813 19.8014 38.6903 19.8319C37.5849 19.862 37.7418 18.738 37.7664 16.5771ZM40.0149 16.1844C39.919 16.1845 38.8492 16.3761 38.6812 15.7858C38.2966 14.4346 42.3913 14.8767 41.1397 15.9286C40.9967 16.0488 40.1064 16.1718 40.0149 16.1844Z" fill="black"/>
<path fill-rule="evenodd" clip-rule="evenodd" d="M74.152 18.1247C74.0139 18.4847 74.0329 18.4815 74.0308 18.8785C73.1309 20.6223 69.8104 20.6262 68.5919 18.846C65.5708 14.4323 71.0635 12.2237 73.0505 14.2877C74.3641 15.6522 72.8867 16.4209 72.1245 15.4879C71.3632 14.5558 70.945 14.7434 69.7054 14.9364C67.9525 15.2095 68.4821 17.9479 69.5209 18.1749C72.0578 18.7295 72.1412 17.5143 72.6089 17.4322C73.758 17.2305 74.0975 18.0009 74.152 18.1247L74.152 18.1247Z" fill="black"/>
<path fill-rule="evenodd" clip-rule="evenodd" d="M53.5325 13.7102C56.0386 13.733 54.9797 14.9046 54.8498 14.9711C54.4292 15.1865 53.5682 14.8348 53.5629 15.9613C53.549 18.872 54.2389 20.0125 51.8511 19.9651C50.2564 19.9335 52.4938 14.8971 50.5288 14.9028C49.6951 14.9052 49.2655 14.848 49.665 14.1175C49.9668 13.5657 52.2233 13.7049 53.5325 13.7102Z" fill="black"/>
<path fill-rule="evenodd" clip-rule="evenodd" d="M19.4752 7.93147C19.6095 7.92541 19.6002 7.92002 19.6095 7.92541C22.0057 9.31622 22.1697 11.7611 22.1994 11.8917C22.4043 12.7935 20.103 14.541 18.3171 12.4895C16.298 10.1704 18.0218 8.88737 18.648 8.37642C19.1041 8.0043 20.1123 9.19515 20.1954 9.27777C20.4982 9.57875 20.5948 11.0602 19.6883 11.9761C18.5539 13.1223 20.2022 12.0591 20.4558 11.6103C21.3669 9.99813 20.2451 9.16293 19.4752 7.93147ZM20.0702 12.7032C20.7823 12.2313 21.3125 12.4566 21.28 10.8355C21.2534 9.50799 22.2345 12.4847 20.5782 12.7528C20.3086 12.7964 20.3062 12.8509 20.0702 12.7032ZM18.1436 9.87313C18.1393 10.2483 18.1346 10.2393 18.2795 10.5738C18.5418 11.1798 17.0434 10.4757 17.762 9.69441C18.0861 9.34207 18.0697 9.34352 18.1093 9.33998C18.2245 9.32964 18.1678 9.39429 18.1435 9.87311L18.1436 9.87313ZM19.5728 10.3019C19.5777 10.2663 19.6638 9.64045 19.7513 9.88946C19.7802 9.9718 19.8787 10.4543 19.7952 10.6636C19.2414 12.0518 18.5324 10.5907 18.7251 10.6107C18.9593 10.6349 18.9816 10.8183 19.3314 10.5523C19.3187 10.6784 19.4227 10.6968 19.3057 10.8063C19.2597 10.8493 19.1895 10.8676 19.1549 10.9202C19.0129 11.1363 19.7216 11.045 19.5728 10.3019L19.5728 10.3019ZM19.49 11.7016C18.9759 12.0555 18.7345 12.4534 18.1751 11.545C18.1245 11.4628 19.4419 11.6124 19.49 11.7016ZM19.0846 8.89063C19.1507 8.99663 19.1421 8.97924 19.4034 9.35027C19.6158 9.65173 19.2737 9.43264 18.8138 9.212C18.8161 8.96735 18.8489 8.96526 19.0846 8.89063ZM19.2211 9.88029C19.2099 9.93119 19.0474 10.6655 18.6559 10.2046C18.5899 10.1269 18.5653 9.69173 18.8364 10.0052C18.9971 10.191 18.992 9.94756 19.2211 9.88029ZM19.5728 10.3019C19.7216 11.045 19.0129 11.1364 19.1548 10.9203C19.1894 10.8676 19.2597 10.8494 19.3057 10.8063C19.4226 10.6968 19.3186 10.6785 19.3314 10.5523C19.4599 10.449 19.4434 10.4484 19.5728 10.3019ZM18.8138 9.212C18.8161 8.96735 18.8489 8.96526 19.0846 8.89063C18.6952 8.5897 18.3481 9.28422 18.8138 9.212Z" fill="black"/>
<path fill-rule="evenodd" clip-rule="evenodd" d="M90.8122 13.7093C91.3175 13.812 91.3323 13.7455 91.519 13.9288C92.5523 14.943 90.4108 16.9354 90.2086 17.1236C88.9854 18.2616 90.0866 20.2126 88.6903 19.9526C87.6309 19.7554 88.0408 19.3361 88.0362 18.2572C88.0311 17.0295 85.6682 14.2921 86.4833 14.0149C87.8238 13.559 88.1722 15.1638 88.3766 15.4928C89.1396 16.721 88.8018 13.8262 90.8122 13.7093Z" fill="black"/>
<path fill-rule="evenodd" clip-rule="evenodd" d="M16.2122 10.3055C16.3873 9.15877 16.5685 9.22841 17.545 7.37282C18.2278 6.07531 18.7756 3.8712 18.9864 4.83132C19.2759 6.14961 20.082 7.43997 20.1332 7.65709C20.2098 7.9819 19.9845 7.72274 19.441 7.54488C19.2757 7.49079 19.1139 7.58327 19.0938 7.59331C15.401 9.44205 18.0503 12.2001 17.3127 12.0782C16.3574 11.9202 16.2272 10.4718 16.2123 10.3056L16.2122 10.3055ZM19.5108 7.03989C19.4405 7.02041 19.5163 7.14518 19.4338 7.12234C19.4094 7.11556 19.3845 7.10866 19.1711 6.94572C19.0756 6.87282 18.9934 6.78332 18.8965 6.71215C18.7871 6.63166 18.391 7.11518 18.3727 7.10897C18.3658 7.10657 18.8117 5.62916 18.8151 5.62919C19.0421 5.63018 18.5099 6.02219 19.5108 7.03991V7.03989Z" fill="black"/>
<path fill-rule="evenodd" clip-rule="evenodd" d="M11.1437 21.4121C10.8658 21.5487 10.4553 21.7505 7.69484 19.6564C2.07448 15.3926 11.2221 23.1685 12.0157 21.709C12.2842 21.717 12.2805 21.7305 14.1321 22.0058C14.4207 22.0487 14.4094 21.9939 14.7056 21.9813L14.7559 21.8721C14.9082 21.9436 14.9102 21.9503 14.8973 22.1238L14.8328 22.2105C11.11 22.167 9.97809 22.0658 7.00687 19.5473C6.04155 18.729 1.68428 13.2341 5.42139 17.5113C7.41507 19.7931 10.6355 21.1915 11.1437 21.4122L11.1437 21.4121Z" fill="black" fill-opacity="0.17"/>
<path fill-rule="evenodd" clip-rule="evenodd" d="M47.1231 3.77165C46.9123 4.68691 44.7633 5.15999 44.6901 4.83253C44.676 4.76984 45.8256 2.58104 46.1123 2.61292C47.018 2.71362 47.1109 3.64925 47.1231 3.77165Z" fill="black"/>
<path fill-rule="evenodd" clip-rule="evenodd" d="M9.09175 22.8914C7.73801 22.3915 7.62328 22.5823 6.59229 21.5552C6.47236 21.4357 4.42309 19.3941 5.19628 19.9647C6.92319 21.2391 6.53991 22.0485 10.9443 23.0488C14.3959 23.8327 9.23819 22.9173 9.09175 22.8914Z" fill="black" fill-opacity="0.93"/>
<path fill-rule="evenodd" clip-rule="evenodd" d="M20.3268 18.6397C21.0758 19.1338 20.1781 20.8621 19.9669 20.9183C17.7344 21.5116 17.6115 21.3437 17.494 21.1831C17.6576 21.1561 19.2303 20.8969 19.4866 20.6123C19.6508 20.43 20.2003 18.8658 20.2547 18.711L20.3267 18.6397H20.3268Z" fill="black" fill-opacity="0.98"/>
<path fill-rule="evenodd" clip-rule="evenodd" d="M12.7109 1.72885C15.2039 0.687936 15.9707 1.02477 18.7332 1.62568C19.1072 1.70703 21.4321 2.74889 19.7922 2.24416C16.2638 1.15824 15.3328 0.884207 12.8079 1.92464C12.798 1.91015 12.8082 1.92523 12.7109 1.72885Z" fill="black" fill-opacity="0.06"/>
<path fill-rule="evenodd" clip-rule="evenodd" d="M17.7949 12.7829L17.8208 12.7649C17.8772 12.7802 17.9336 12.7956 17.99 12.8109C18.583 13.6035 18.6274 13.6096 19.6152 13.7248C20.332 13.8083 22.1412 13.2348 21.1741 13.6277C19.0153 14.5047 18.9849 14.5637 18.8262 14.4439C18.0195 13.8348 18.1163 13.7528 17.7949 12.7829L17.7949 12.7829Z" fill="black" fill-opacity="0.99"/>
<path fill-rule="evenodd" clip-rule="evenodd" d="M29.5474 15.791C29.1348 17.57 26.429 19.3863 27.7308 17.9863C29.9408 15.6098 30.0395 12.3818 30.1195 13.752C30.1196 13.7527 29.5932 15.6279 29.5474 15.791V15.791Z" fill="black" fill-opacity="0.97"/>
<path fill-rule="evenodd" clip-rule="evenodd" d="M21.1084 8.05728C22.5095 8.12768 22.283 8.95209 22.1815 9.87109C22.1465 10.1874 20.8758 8.32666 20.7766 8.18149C20.703 8.07363 20.8081 8.11274 21.1084 8.05728Z" fill="black"/>
<path fill-rule="evenodd" clip-rule="evenodd" d="M6.92745 3.49034C7.00331 3.22023 7.76667 2.01479 7.88299 1.95386C9.3986 1.15973 9.38732 1.17373 11.0408 0.688505C12.8805 0.14863 8.70798 1.60422 7.98752 2.39129C7.4658 2.96124 7.48192 2.95363 6.92745 3.49034Z" fill="black" fill-opacity="0.96"/>
<path fill-rule="evenodd" clip-rule="evenodd" d="M17.3232 23.4342C16.5667 23.1495 18.1779 23.5427 20.2974 22.8118C20.523 22.734 24.5572 20.671 22.6935 21.7806C20.0405 23.3601 19.2453 23.5821 17.3232 23.4341V23.4342Z" fill="black" fill-opacity="0.9"/>
<path fill-rule="evenodd" clip-rule="evenodd" d="M3.70534 12.0873C3.70163 12.0835 3.64337 12.068 3.60996 11.9909C3.29222 11.2577 3.30325 11.2669 2.91437 10.5716C2.73432 10.2496 2.54948 9.93035 2.37149 9.60727C2.06955 9.05922 2.59697 6.93122 2.60031 7.89387C2.60948 10.5284 4.00576 11.6219 3.70534 12.0873Z" fill="black" fill-opacity="0.97"/>
<path fill-rule="evenodd" clip-rule="evenodd" d="M12.7878 6.21559C12.9734 6.10795 16.1524 4.26479 15.1745 4.99205C13.513 6.22758 13.4864 6.16807 10.8776 8.20797C10.8766 8.16107 10.7836 8.15108 10.7826 8.10418C10.7785 7.91328 10.8794 7.97526 12.6378 6.6025C12.6878 6.47353 12.7378 6.34456 12.7878 6.21559Z" fill="black" fill-opacity="0.11"/>
<path fill-rule="evenodd" clip-rule="evenodd" d="M17.8437 23.8666H17.402C15.9906 23.4209 11.4395 23.5324 15.1036 23.1834C15.2532 23.1692 15.3419 23.1607 16.9542 23.5051C17.4662 23.6144 17.6012 23.3983 17.8437 23.8666Z" fill="black" fill-opacity="0.97"/>
<path fill-rule="evenodd" clip-rule="evenodd" d="M22.7128 1.85203C25.0665 2.62489 25.0161 2.7118 27.2795 3.70933C29.383 4.63642 22.7189 2.35152 22.7128 1.85203Z" fill="black" fill-opacity="0.9"/>
<path fill-rule="evenodd" clip-rule="evenodd" d="M29.5464 14.1138C28.2562 16.9983 28.0575 17.1978 27.9728 16.9523C27.9068 16.7614 28.1609 16.8233 28.9779 14.6364C28.9995 14.5786 30.6016 10.8934 29.5464 14.1138Z" fill="black" fill-opacity="0.98"/>
<path fill-rule="evenodd" clip-rule="evenodd" d="M13.585 14.1068C13.5431 13.007 13.3177 9.45705 13.6341 12.062C13.749 13.008 14.1558 15.6513 14.4252 16.6411C14.3689 16.6097 14.3126 16.5782 14.2563 16.5467C13.6286 14.1864 13.643 14.1791 13.585 14.1068Z" fill="black" fill-opacity="0.09"/>
<path fill-rule="evenodd" clip-rule="evenodd" d="M11.3785 2.30804C11.2588 2.43006 8.43415 4.05686 7.87696 5.37469C7.86468 5.40372 7.95918 5.40922 7.9469 5.43825C7.86402 5.41355 7.78114 5.38888 7.69825 5.36418C8.35694 3.94146 8.48403 4.02134 9.74235 3.09885C10.5879 2.47897 11.2364 2.33875 11.3785 2.30804Z" fill="black" fill-opacity="0.07"/>
<path fill-rule="evenodd" clip-rule="evenodd" d="M10.603 8.45295C9.52263 9.75237 9.50458 9.71896 8.786 10.6995C5.96845 14.544 9.75804 8.82789 9.85934 8.67511C10.0822 8.73533 10.08 8.7048 10.2601 8.57066C10.4192 8.44299 10.406 8.42585 10.603 8.45295Z" fill="black" fill-opacity="0.07"/>
<path fill-rule="evenodd" clip-rule="evenodd" d="M11.144 21.4122C11.2122 21.44 11.535 21.5715 12.0159 21.7091C11.2223 23.1685 2.07475 15.3927 7.6951 19.6564C10.4556 21.7506 10.8661 21.5488 11.144 21.4122Z" fill="black" fill-opacity="0.89"/>
<path fill-rule="evenodd" clip-rule="evenodd" d="M29.4859 7.57823C30.6812 9.93484 30.169 10.2924 30.0697 10.1097C29.9904 9.96374 30.1265 9.13618 29.2018 7.58989C28.2981 6.07887 28.2423 6.06122 28.3073 6.00472C28.3819 5.93981 29.0651 6.97403 29.4859 7.5782V7.57823Z" fill="black" fill-opacity="0.91"/>
<path fill-rule="evenodd" clip-rule="evenodd" d="M1.85618 13.0462C2.10574 13.2291 1.53832 13.4464 2.94329 16.7581C3.43565 17.9188 1.87869 15.2762 1.87072 14.9879C1.86644 14.8326 1.87601 14.8353 1.85618 13.0462Z" fill="black" fill-opacity="0.98"/>
<path fill-rule="evenodd" clip-rule="evenodd" d="M26.437 19.0693C26.0339 19.5615 25.9772 19.4712 24.8242 20.2913C22.7427 21.7718 25.3111 19.7993 27.0615 17.9412C28.1712 16.7633 26.499 18.9868 26.437 19.0693Z" fill="black" fill-opacity="0.95"/>
<path fill-rule="evenodd" clip-rule="evenodd" d="M13.7445 15.7797C13.7832 15.8002 13.819 15.6927 13.8577 15.7132C13.8931 15.7319 13.9446 16.0215 13.9494 16.0489C14.2711 17.8574 16.6521 22.8126 15.3806 20.3712C13.8949 17.5185 13.7532 15.8242 13.7445 15.7797H13.7445Z" fill="black" fill-opacity="0.27"/>
<path fill-rule="evenodd" clip-rule="evenodd" d="M17.5577 5.87947C17.7912 5.34275 17.8082 5.334 17.8538 5.31052C18.4282 5.01524 17.0128 7.58649 16.9111 7.77115C15.0391 11.172 17.5338 5.93124 17.5576 5.87945L17.5577 5.87947Z" fill="black" fill-opacity="0.98"/>
<path fill-rule="evenodd" clip-rule="evenodd" d="M12.0349 12.264C12.2491 12.4612 11.9678 12.6912 11.2895 14.541C10.9576 15.446 11.3103 16.1204 11.2988 16.5777C11.2725 17.6153 11.0717 16.3366 11.0673 16.3085C10.7354 14.1955 11.1824 14.2426 12.0349 12.264Z" fill="black" fill-opacity="0.84"/>
<path fill-rule="evenodd" clip-rule="evenodd" d="M7.76005 1.16876C7.97672 1.11462 16.6521 -1.05282 10.5038 0.653887C8.67096 1.16264 8.32506 0.703336 7.25211 2.28693C6.93247 2.75869 7.3465 1.42293 7.76008 1.16873L7.76005 1.16876Z" fill="black" fill-opacity="0.87"/>
<path fill-rule="evenodd" clip-rule="evenodd" d="M4.98122 8.27086C4.47995 8.1 4.7933 8.49677 4.94219 9.42423C4.9937 9.86332 5.08532 9.85619 4.94203 10.2265C4.64663 9.64642 4.79068 8.62641 4.09275 6.76478C2.76642 3.2269 4.92497 8.14278 4.98122 8.27086Z" fill="black" fill-opacity="0.05"/>
<path fill-rule="evenodd" clip-rule="evenodd" d="M9.62887 3.76511L9.7173 3.85798C9.35353 4.23873 7.98724 5.51597 7.45903 6.4596C6.58879 8.01426 7.66404 5.44702 7.69869 5.36429C7.78158 5.38899 7.86446 5.41366 7.94734 5.43836C9.37647 3.77354 9.47408 3.88433 9.62887 3.76511Z" fill="black" fill-opacity="0.05"/>
<path fill-rule="evenodd" clip-rule="evenodd" d="M46.2732 20.2327C46.3343 20.3162 46.4672 20.3117 46.357 20.3471C44.3704 20.9865 43.4717 18.938 43.9776 18.9927C44.2943 19.0269 44.0526 20.196 46.2732 20.2327Z" fill="black" fill-opacity="0.97"/>
<path fill-rule="evenodd" clip-rule="evenodd" d="M6.54212 14.3628C6.40149 14.3613 6.39843 14.4437 6.27692 14.36C4.66619 13.2509 4.47918 13.3562 3.7451 11.5256C2.9689 9.59007 3.88334 12.229 5.48308 13.5683C5.998 13.9993 5.99474 13.9801 6.5421 14.3628H6.54212Z" fill="black" fill-opacity="0.91"/>
<path fill-rule="evenodd" clip-rule="evenodd" d="M50.4713 19.9303C50.3862 20.9137 48.5396 20.7715 49.4961 19.877C49.9839 19.4208 50.4173 19.8738 50.4713 19.9303Z" fill="black"/>
<path fill-rule="evenodd" clip-rule="evenodd" d="M50.225 16.5877C50.003 15.9322 49.9983 15.938 50.0348 15.8933C50.0767 15.842 50.1251 15.8506 50.5788 16.5185C50.8594 16.9316 49.8893 18.9448 49.7262 18.6132C49.5032 18.1594 50.2372 18.2342 50.2249 16.5877L50.225 16.5877Z" fill="black" fill-opacity="0.98"/>
<path fill-rule="evenodd" clip-rule="evenodd" d="M91.0289 18.7881C91.5187 17.6811 92.2242 18.9078 91.9316 19.1999C91.4262 19.7044 91.0605 18.8609 91.0289 18.7881Z" fill="black"/>
<path fill-rule="evenodd" clip-rule="evenodd" d="M28.2184 4.82929C28.1843 5.37385 28.2216 5.60106 28.1208 5.42141C27.2598 3.88605 25.4099 3.95121 26.4142 3.86789C26.483 3.86219 26.4642 3.90782 27.2127 4.19729C27.9034 4.46445 28.1128 4.27322 28.2184 4.82931V4.82929Z" fill="black" fill-opacity="0.97"/>
<path fill-rule="evenodd" clip-rule="evenodd" d="M12.7881 6.21554C12.7381 6.34451 12.6881 6.47348 12.6381 6.60245C12.4006 6.61638 12.0378 6.63764 10.264 8.39207C10.264 8.39207 10.2603 8.55636 10.26 8.57064C10.0798 8.70481 10.0821 8.73534 9.85924 8.67509C10.8944 7.38161 11.1985 7.18218 12.7881 6.21551L12.7881 6.21554Z" fill="black" fill-opacity="0.2"/>
<path fill-rule="evenodd" clip-rule="evenodd" d="M77.2091 5.22187C76.2571 5.00869 76.768 3.84725 77.4406 4.42324C78.1044 4.99168 77.2735 5.20532 77.2091 5.22187Z" fill="black"/>
<path fill-rule="evenodd" clip-rule="evenodd" d="M25.8939 10.8202C25.4703 10.5554 25.463 10.593 25.0116 10.3752C24.7631 10.2553 25.8841 8.32007 25.596 9.15491C25.5653 9.24409 24.4307 12.9169 26.4382 9.98013C26.6681 9.64384 26.401 11.0404 25.8939 10.8202Z" fill="black" fill-opacity="0.1"/>
<path fill-rule="evenodd" clip-rule="evenodd" d="M58.5305 6.95816C57.474 3.75976 59.4608 8.24014 59.5165 8.36583C59.685 8.74562 58.8794 7.91164 58.5305 6.95816Z" fill="black" fill-opacity="0.93"/>
<path fill-rule="evenodd" clip-rule="evenodd" d="M32.6316 5.71518C32.7134 5.32276 32.7062 5.32319 32.7199 5.29139C32.7679 5.18006 33.4492 4.54447 33.0186 5.26323C32.8974 5.46558 32.9831 9.39968 32.7754 7.12562C32.7712 7.07996 32.6431 5.82801 32.6316 5.71518Z" fill="black" fill-opacity="0.95"/>
<path fill-rule="evenodd" clip-rule="evenodd" d="M18.1438 9.8729C18.1396 10.2481 18.1349 10.2391 18.2797 10.5736C18.5421 11.1796 17.0437 10.4755 17.7623 9.69418C18.0863 9.34184 18.07 9.34329 18.1095 9.33975C18.2248 9.32941 18.1681 9.39407 18.1438 9.87288L18.1438 9.8729Z" fill="black" fill-opacity="0.08"/>
<path fill-rule="evenodd" clip-rule="evenodd" d="M18.4923 18.7862C18.3775 19.1877 17.0936 20.657 17.8301 19.2222C18.3493 18.2105 18.4644 16.7637 18.4652 17.9036C18.4654 18.3526 18.4786 18.3415 18.4923 18.7862Z" fill="black" fill-opacity="0.98"/>
<path fill-rule="evenodd" clip-rule="evenodd" d="M20.8333 18.869C21.8365 19.4733 20.8729 20.6415 20.4551 20.624C20.4959 20.5003 20.9551 19.5584 20.8333 18.869Z" fill="black"/>
<path fill-rule="evenodd" clip-rule="evenodd" d="M3.54921 3.42953C3.80762 3.67548 3.61119 3.70854 3.44688 4.03571C2.43848 6.04376 2.83206 6.16947 2.73757 6.3374C-3.81337 17.9789 3.43549 3.64261 3.54921 3.42953Z" fill="black" fill-opacity="0.94"/>
<path fill-rule="evenodd" clip-rule="evenodd" d="M15.9422 11.0496C16.024 11.1612 16.0484 11.1239 16.0944 11.2572C16.4598 12.3169 16.812 12.037 17.1316 12.432C18.3972 13.9963 15.7105 12.2081 15.9422 11.0496Z" fill="black" fill-opacity="0.93"/>
<path fill-rule="evenodd" clip-rule="evenodd" d="M62.9794 5.99912L63.0511 6.07398C63.0378 7.54678 62.954 7.52845 63.006 9.00647L62.8726 8.99112C62.8405 8.75377 62.5153 6.34787 62.9794 5.99914V5.99912Z" fill="black" fill-opacity="0.87"/>
<path fill-rule="evenodd" clip-rule="evenodd" d="M11.1309 11.985C11.0138 12.1328 10.8966 12.2805 10.7794 12.4283C9.55919 13.4669 7.64496 13.7114 8.5321 13.3643C11.0713 12.3708 10.8968 12.0088 11.1309 11.985Z" fill="black" fill-opacity="0.9"/>
<path fill-rule="evenodd" clip-rule="evenodd" d="M90.0628 9.89343C90.0684 10.0989 90.4038 11.2629 89.2158 11.697C88.2255 12.0588 89.6439 11.427 89.8434 10.3958C89.9149 10.0261 89.7929 9.89442 90.0628 9.89345V9.89343Z" fill="black" fill-opacity="0.96"/>
<path fill-rule="evenodd" clip-rule="evenodd" d="M18.0741 17.0468C18.2905 18.0852 17.2709 19.5125 17.1458 19.8543C17.071 20.0587 16.7798 20.2116 16.9111 19.9409C17.5706 18.5823 17.5931 18.5987 17.9654 17.1441C17.9683 17.1328 17.9654 17.1441 18.0741 17.0468L18.0741 17.0468Z" fill="black" fill-opacity="0.75"/>
<path fill-rule="evenodd" clip-rule="evenodd" d="M6.95897 15.0406C6.73556 14.9594 4.96723 14.3169 4.42969 13.4813C4.26856 13.2308 6.90081 14.9051 6.95897 15.0406Z" fill="black" fill-opacity="0.86"/>
<path fill-rule="evenodd" clip-rule="evenodd" d="M15.7601 9.77833C15.7166 10.2573 15.8895 10.5929 15.5534 10.3831C14.657 9.82376 16.3288 8.39882 15.9197 9.34306C15.8246 9.56245 15.8416 9.55598 15.7601 9.77833Z" fill="black"/>
<path fill-rule="evenodd" clip-rule="evenodd" d="M91.5083 16.8352C90.6716 17.8335 90.464 17.6535 90.4652 17.5522C90.4665 17.4429 90.6295 17.5589 91.3988 16.5537C91.8782 15.9273 91.2275 14.9375 91.8336 15.4587C91.8675 15.4878 91.814 15.7554 91.809 15.7807C91.6931 16.361 91.7777 16.378 91.5083 16.8352Z" fill="black" fill-opacity="0.9"/>
<path fill-rule="evenodd" clip-rule="evenodd" d="M12.6379 6.60238C10.8795 7.97513 10.7785 7.91316 10.7826 8.10405C10.7837 8.15096 10.8767 8.16094 10.8777 8.20784L10.6027 8.45285C10.4057 8.42576 10.4189 8.4429 10.2598 8.57057C10.2601 8.55628 10.2638 8.39199 10.2638 8.39199C12.0376 6.63757 12.4004 6.61628 12.6378 6.60238H12.6379Z" fill="black" fill-opacity="0.91"/>
<path fill-rule="evenodd" clip-rule="evenodd" d="M26.4075 11.5359L26.4955 11.5485C26.8113 12.8887 27.4196 12.8383 27.5116 13.2201C27.5739 13.4782 26.7958 13.0293 26.7402 12.9972C26.9268 12.8688 26.9342 12.8854 26.9268 12.8688C26.8723 12.7468 26.8128 12.8073 26.762 12.6938C26.348 11.8514 26.3372 11.8779 26.3069 11.8038C26.3405 11.7145 26.374 11.6252 26.4075 11.5359Z" fill="black" fill-opacity="0.04"/>
<path fill-rule="evenodd" clip-rule="evenodd" d="M84.9991 13.7362C84.8482 13.7638 84.8681 13.8353 84.7143 13.7883C83.8766 13.5321 83.0642 13.4237 83.0361 13.4009C82.9124 13.3003 83.1592 12.5962 84.9991 13.7362V13.7362Z" fill="black" fill-opacity="0.97"/>
<path fill-rule="evenodd" clip-rule="evenodd" d="M52.2807 7.85516C52.7042 6.40133 52.3755 6.37592 52.4133 6.25295C52.5377 5.84732 53.4427 7.39733 52.2807 7.85516Z" fill="black" fill-opacity="0.99"/>
<path fill-rule="evenodd" clip-rule="evenodd" d="M60.2873 12.8671C60.08 13.5976 59.3793 13.5401 59.5628 12.8767C59.7566 12.1761 60.2159 12.6367 60.2873 12.8671Z" fill="black" fill-opacity="0.99"/>
<path fill-rule="evenodd" clip-rule="evenodd" d="M59.9418 10.5505C59.6834 10.4637 59.157 8.52738 59.3523 8.64438C60.0088 9.03766 59.9489 10.391 59.9418 10.5505Z" fill="black" fill-opacity="0.99"/>
<path fill-rule="evenodd" clip-rule="evenodd" d="M58.9401 20.0016C59.4973 20.3132 60.1579 20.2784 59.7975 20.4397C59.72 20.4744 59.726 20.4022 58.7427 20.3148C58.1357 20.2608 58.4569 19.2617 58.626 19.5207C58.7613 19.7279 58.7107 19.7503 58.9401 20.0016Z" fill="black" fill-opacity="0.91"/>
<path fill-rule="evenodd" clip-rule="evenodd" d="M10.7752 12.8673C10.6429 12.9875 9.61056 13.9251 8.75194 13.8151C8.05796 13.7262 9.69744 13.5812 10.6272 12.7944C10.6373 12.7859 10.6272 12.7944 10.7752 12.8673V12.8673Z" fill="black" fill-opacity="0.96"/>
<path fill-rule="evenodd" clip-rule="evenodd" d="M19.5114 7.0398C19.4411 7.02032 19.5168 7.14509 19.4344 7.12225C19.41 7.11548 19.3851 7.10858 19.1717 6.94564C19.0762 6.87274 18.9939 6.78323 18.8971 6.71206C18.7876 6.63157 18.3915 7.1151 18.3733 7.10888C18.3663 7.10649 18.8122 5.62908 18.8157 5.6291C19.0427 5.6301 18.5105 6.02211 19.5114 7.03983V7.0398Z" fill="black" fill-opacity="0.09"/>
<path fill-rule="evenodd" clip-rule="evenodd" d="M20.9477 18.69C21.0072 18.7648 22.1324 19.483 20.824 20.7057C20.5217 20.9883 20.4682 20.7727 20.3945 20.7228L20.4543 20.6241C20.8721 20.6415 21.8357 19.4734 20.8325 18.8691C20.8709 18.8094 20.9093 18.7497 20.9477 18.69V18.69Z" fill="black" fill-opacity="0.21"/>
<path fill-rule="evenodd" clip-rule="evenodd" d="M87.0787 17.7486C86.3635 17.1875 86.2348 17.2408 86.2936 17.191C86.9382 16.6445 87.6534 18.1302 87.7151 18.2583C88.0415 18.9364 87.1198 17.7993 87.0787 17.7486Z" fill="black" fill-opacity="0.97"/>
<path fill-rule="evenodd" clip-rule="evenodd" d="M41.1722 18.3733C42.118 18.4262 42.1068 18.3544 42.845 18.001C44.2496 17.3286 42.2696 18.5535 42.2108 18.59C41.6836 18.9161 41.6228 18.8184 41.1212 18.4442C41.1382 18.4206 41.1552 18.397 41.1722 18.3733H41.1722Z" fill="black" fill-opacity="0.93"/>
<path fill-rule="evenodd" clip-rule="evenodd" d="M66.5157 9.77358C66.6034 9.75262 66.5879 9.74705 66.6704 9.73661C67.5886 9.62044 67.6203 9.77119 68.4644 9.36996C68.8342 9.19416 68.0594 10.0007 67.7551 9.98327C67.7551 9.98327 66.7069 9.92359 66.6157 9.91839C66.5824 9.87011 66.549 9.82186 66.5157 9.77358H66.5157Z" fill="black" fill-opacity="0.96"/>
<path fill-rule="evenodd" clip-rule="evenodd" d="M64.5042 13.249C64.8781 13.2434 67.4181 13.0897 66.3289 13.4562C66.246 13.484 65.3656 13.4641 65.1125 13.4431C64.7588 13.4136 64.6782 13.557 64.5041 13.249L64.5042 13.249Z" fill="black" fill-opacity="0.96"/>
<path fill-rule="evenodd" clip-rule="evenodd" d="M19.5211 0.840165C21.0262 1.31279 22.0994 2.022 21.2016 1.72912C20.3345 1.44622 20.3607 1.4108 19.5552 1.0031L19.5211 0.840165Z" fill="black" fill-opacity="0.96"/>
<path fill-rule="evenodd" clip-rule="evenodd" d="M69.5121 17.8405C69.1953 17.6535 69.2296 17.6291 69.1015 17.2821C68.8316 16.5509 69.3107 17.5145 70.0516 17.7313C72.297 18.3883 69.5553 17.849 69.5121 17.8405Z" fill="black" fill-opacity="0.98"/>
<path fill-rule="evenodd" clip-rule="evenodd" d="M31.7349 16.3225C31.2202 17.2277 30.968 17.0913 31.007 17.0206C31.859 15.4751 31.8526 15.338 31.9506 15.4473C31.9935 15.495 31.7564 16.2537 31.7349 16.3225H31.7349Z" fill="black" fill-opacity="0.95"/>
<path fill-rule="evenodd" clip-rule="evenodd" d="M88.8922 14.712C88.8957 14.529 88.7606 13.6135 89.84 13.4108C90.7878 13.233 89.3906 13.5786 89.0849 14.4878C89.0295 14.6525 89.0681 14.7022 88.8922 14.712Z" fill="black" fill-opacity="0.97"/>
<path fill-rule="evenodd" clip-rule="evenodd" d="M28.4991 5.12403C28.9328 6.12746 28.9656 6.0908 29.4936 7.04168C29.1897 7.03936 28.1837 5.58283 28.4991 5.12403Z" fill="black" fill-opacity="0.92"/>
<path fill-rule="evenodd" clip-rule="evenodd" d="M55.9846 4.86209C55.9193 4.90492 56.0396 4.93685 55.9761 4.97846C55.9321 5.00731 55.9324 4.98857 55.3809 5.25792C54.9153 5.48528 54.6788 5.92427 54.6432 5.73345C54.4765 4.83834 55.8567 4.86008 55.9846 4.86212V4.86209Z" fill="black" fill-opacity="0.99"/>
<path fill-rule="evenodd" clip-rule="evenodd" d="M78.8877 20.0075C78.1145 19.4069 77.0202 19.0942 78.0039 19.0867C78.7927 19.0807 78.8772 19.9059 78.8877 20.0075Z" fill="black" fill-opacity="0.98"/>
<path fill-rule="evenodd" clip-rule="evenodd" d="M68.7968 5.70995C68.7282 5.77005 68.7347 5.76669 68.7282 5.77005C68.6977 5.78581 68.7034 5.74871 68.6641 5.769C68.1782 5.11452 67.9959 5.40658 67.1204 5.0062C68.4325 4.71701 68.7467 5.57339 68.7968 5.70995Z" fill="black" fill-opacity="0.93"/>
<path fill-rule="evenodd" clip-rule="evenodd" d="M25.5627 15.2434L25.715 15.3453C25.39 16.1767 25.2949 16.1123 24.8892 16.9122C24.7748 16.877 24.7788 16.8948 24.738 16.8436C24.9677 16.301 24.9652 16.3174 25.1378 15.7619C25.6299 15.7361 25.4587 15.4921 25.5627 15.2434Z" fill="black" fill-opacity="0.05"/>
<path fill-rule="evenodd" clip-rule="evenodd" d="M84.3448 20.0435C84.805 20.3865 85.4655 20.5753 84.8913 20.54C84.0881 20.4906 83.9692 20.1576 83.8442 19.7585C83.7106 19.3321 83.9791 19.7761 84.3448 20.0435Z" fill="black" fill-opacity="0.99"/>
<path fill-rule="evenodd" clip-rule="evenodd" d="M79.713 15.9316C79.4464 15.2589 78.9279 13.3782 79.63 14.8597C79.6669 14.9374 80.1467 15.9499 79.713 15.9316Z" fill="black" fill-opacity="0.89"/>
<path fill-rule="evenodd" clip-rule="evenodd" d="M84.0088 8.34694C84.7213 8.90293 84.7583 8.80915 85.5823 9.17478C85.5882 9.228 85.5942 9.28122 85.6002 9.33444C84.6663 8.97555 84.5655 9.13554 83.9286 8.44918L84.0088 8.34694Z" fill="black" fill-opacity="0.96"/>
<path fill-rule="evenodd" clip-rule="evenodd" d="M57.8776 15.4443C58.4038 15.1709 58.3244 15.0901 58.6068 14.5734C58.7614 14.2904 58.968 15.8177 57.879 15.5709C57.879 15.5709 57.8777 15.4544 57.8776 15.4443Z" fill="black" fill-opacity="0.97"/>
<path fill-rule="evenodd" clip-rule="evenodd" d="M73.0787 16.2812C73.0866 16.1013 73.1657 16.1749 73.5999 16.092C73.9222 16.0306 73.948 15.0588 74.0879 15.442C74.4034 16.3064 73.9897 16.3821 73.0787 16.2812Z" fill="black" fill-opacity="0.95"/>
<path fill-rule="evenodd" clip-rule="evenodd" d="M42.9987 14.2269C42.9515 14.2024 42.2031 13.8143 42.4978 13.7908C43.5756 13.7049 43.604 15.2015 43.3174 14.7002C43.1734 14.4485 43.2116 14.4383 42.9987 14.2269Z" fill="black" fill-opacity="0.99"/>
<path fill-rule="evenodd" clip-rule="evenodd" d="M22.3841 10.222C22.5026 9.56389 22.4811 9.54846 22.5284 9.51538C22.611 9.45758 22.9104 9.53114 22.4734 10.7744C22.061 11.9479 22.3759 10.266 22.3841 10.222Z" fill="black" fill-opacity="0.98"/>
<path fill-rule="evenodd" clip-rule="evenodd" d="M32.4266 20.1348C32.4817 20.1282 33.0276 20.0624 33.1055 19.9936C33.1708 19.9358 33.4264 19.4586 33.4741 19.4527C33.8988 19.4 33.0575 20.8278 32.3698 20.2089C32.3887 20.1842 32.4077 20.1595 32.4266 20.1348Z" fill="black" fill-opacity="0.96"/>
<path fill-rule="evenodd" clip-rule="evenodd" d="M34.1984 11.3023C34.9753 11.2731 34.9517 11.3402 35.6834 11.5515C35.8247 11.5922 35.7615 11.7467 35.5999 11.7084C34.1841 11.3727 34.1915 11.3789 34.1801 11.365L34.1984 11.3023V11.3023Z" fill="black" fill-opacity="0.91"/>
<path fill-rule="evenodd" clip-rule="evenodd" d="M77.9183 11.0972C78.3875 11.3345 78.3795 11.3183 78.8739 11.4774C80.2363 11.916 76.7693 11.3749 77.6592 10.9634C77.6592 10.9634 77.8976 11.0865 77.9183 11.0972Z" fill="black" fill-opacity="0.98"/>
<path fill-rule="evenodd" clip-rule="evenodd" d="M32.5114 14.1055C32.9672 13.5019 33.0134 13.4272 33.7557 13.5577C34.1359 13.6245 33.1118 13.8975 32.8694 14.0333C32.7765 14.0853 32.7008 14.1779 32.5966 14.1989C32.5553 14.2072 32.5527 14.0972 32.5114 14.1055Z" fill="black" fill-opacity="0.99"/>
<path fill-rule="evenodd" clip-rule="evenodd" d="M36.301 8.80285C37.1758 8.13377 36.9674 7.90878 37.284 7.75775C37.5717 7.6205 37.0348 9.07077 36.301 8.80285Z" fill="black" fill-opacity="0.94"/>
<path fill-rule="evenodd" clip-rule="evenodd" d="M71.9898 11.7611C71.6041 11.6669 71.5035 11.7493 71.4138 11.3643C71.3449 11.0687 71.5303 11.3669 71.8165 11.4599C72.3048 11.6186 72.3082 11.4469 72.6094 11.4739C72.6638 11.4787 72.7777 11.7915 71.9898 11.7611Z" fill="black" fill-opacity="0.98"/>
<path fill-rule="evenodd" clip-rule="evenodd" d="M53.9843 19.6139C54.5765 20.0662 53.0413 20.7621 53.0457 20.2859C53.0466 20.1873 53.4138 20.1775 53.7192 20.044C53.8299 19.9955 53.7996 19.9678 53.9087 19.6813C53.9339 19.6588 53.9591 19.6364 53.9843 19.6139Z" fill="black" fill-opacity="0.97"/>
<path fill-rule="evenodd" clip-rule="evenodd" d="M2.83323 7.64208C2.92079 7.79618 3.06005 8.86766 3.15707 9.4169C2.87336 9.61911 2.78115 8.37021 2.77407 8.27406C2.7496 7.94247 2.71602 7.94751 2.83325 7.64211L2.83323 7.64208Z" fill="black" fill-opacity="0.86"/>
<path fill-rule="evenodd" clip-rule="evenodd" d="M72.7844 6.31101C72.9431 6.55466 72.3042 7.46536 72.198 7.28748C72.1761 7.25078 71.8124 6.49271 72.1619 6.79366C72.2838 6.8986 72.3319 6.86779 72.7843 6.31103L72.7844 6.31101Z" fill="black" fill-opacity="0.96"/>
<path fill-rule="evenodd" clip-rule="evenodd" d="M81.5927 5.17429C81.7474 4.65512 83.2557 5.99327 82.6896 5.94756C82.5826 5.93893 82.701 5.75353 81.5927 5.17429Z" fill="black" fill-opacity="0.99"/>
<path fill-rule="evenodd" clip-rule="evenodd" d="M20.4187 7.04293L20.3237 7.11403C19.8177 6.45603 19.5335 4.75199 19.8739 5.62559C20.3831 6.9325 20.3912 6.9246 20.4187 7.04293Z" fill="black" fill-opacity="0.67"/>
<path fill-rule="evenodd" clip-rule="evenodd" d="M26.0168 14.0056C26.0421 14.0612 26.0674 14.1168 26.0926 14.1724C25.9352 14.5478 25.9153 14.523 25.7149 15.3453L25.5626 15.2433C25.5121 15.1832 25.4616 15.123 25.4111 15.0628C25.9671 14.0833 25.954 14.0801 26.0168 14.0056Z" fill="black" fill-opacity="0.19"/>
<path fill-rule="evenodd" clip-rule="evenodd" d="M16.3744 7.45876C16.388 6.57421 17.4605 5.58764 17.1008 6.2299C16.5664 7.18419 16.7839 7.42711 16.3744 7.45876Z" fill="black" fill-opacity="0.82"/>
<path fill-rule="evenodd" clip-rule="evenodd" d="M54.2731 16.0599C54.2632 16.1006 53.9988 17.1793 53.9749 16.4902C53.9719 16.4048 53.9471 15.6887 54.4161 15.5173C54.543 15.4709 54.5331 15.5923 54.2731 16.0599Z" fill="black" fill-opacity="0.98"/>
<path fill-rule="evenodd" clip-rule="evenodd" d="M5.23896 9.50827C5.35744 10.2252 5.31866 10.2179 5.45889 10.921C5.25406 11.3969 5.16728 10.3577 5.16272 10.3031C5.09621 9.58278 5.21367 9.60053 5.23896 9.50827Z" fill="black" fill-opacity="0.26"/>
<path fill-rule="evenodd" clip-rule="evenodd" d="M36.6771 15.9514C36.704 16.0028 38.1907 18.8355 36.8492 16.6562C36.8188 16.6068 34.91 13.2044 36.6771 15.9514Z" fill="black" fill-opacity="0.89"/>
<path fill-rule="evenodd" clip-rule="evenodd" d="M62.063 18.7042C62.0612 18.6709 62.0327 18.1311 62.155 18.2983C62.3289 18.5359 62.3218 18.9188 62.3208 18.9745C62.2908 20.5914 62.0652 18.734 62.063 18.7042Z" fill="black" fill-opacity="0.94"/>
<path fill-rule="evenodd" clip-rule="evenodd" d="M4.98108 8.27087L5.14074 8.97845C5.11971 9.07442 5.03894 9.00002 5.0163 9.1033C4.98694 9.23724 5.08991 9.21722 5.06058 9.34405C5.04984 9.39052 4.95279 9.37774 4.94205 9.42421C4.79319 8.49676 4.47981 8.09999 4.98108 8.27085V8.27087Z" fill="black" fill-opacity="0.45"/>
<path fill-rule="evenodd" clip-rule="evenodd" d="M26.2101 12.0696C26.4667 12.5032 26.2886 12.8361 26.7617 12.6938C26.8124 12.8073 26.8719 12.7468 26.9265 12.8688C26.9338 12.8854 26.9265 12.8688 26.7398 12.9972C26.0977 12.9375 26.2029 12.7271 26.2101 12.0696Z" fill="black" fill-opacity="0.1"/>
<path fill-rule="evenodd" clip-rule="evenodd" d="M67.5361 14.6704C67.7599 15.5321 66.2384 15.3524 66.5462 15.193C66.9494 14.9843 67.1867 15.3047 67.4072 14.7263C67.4112 14.7158 67.4072 14.7263 67.5361 14.6704V14.6704Z" fill="black" fill-opacity="0.86"/>
<path fill-rule="evenodd" clip-rule="evenodd" d="M39.139 5.45985C39.1796 5.48745 39.8745 5.61347 40.1094 6.50825C39.9443 6.49845 39.1625 5.51345 39.139 5.45985Z" fill="black" fill-opacity="0.84"/>
<path fill-rule="evenodd" clip-rule="evenodd" d="M42.1509 11.428C42.4136 11.2184 42.6585 10.7483 42.6926 10.6829C42.8061 10.465 43.3108 11.3612 42.1509 11.428Z" fill="black" fill-opacity="0.92"/>
<path fill-rule="evenodd" clip-rule="evenodd" d="M12.711 1.72893C12.8083 1.92531 12.7982 1.91026 12.808 1.92475C11.7425 2.19751 11.7558 2.18832 11.5816 2.24673C11.6069 1.91291 12.6469 1.7422 12.711 1.72893H12.711Z" fill="black" fill-opacity="0.7"/>
<path fill-rule="evenodd" clip-rule="evenodd" d="M88.2625 5.61447C87.8533 5.01116 88.7145 5.48524 88.6631 5.8856C88.5652 6.64759 88.4004 5.81051 88.3401 5.71184C88.3184 5.67645 88.2842 5.64989 88.2625 5.61447Z" fill="black" fill-opacity="0.98"/>
<path fill-rule="evenodd" clip-rule="evenodd" d="M5.14119 8.97853C5.17396 9.15512 5.20673 9.33171 5.2395 9.50827C5.21422 9.60052 5.09675 9.58277 5.16326 10.3031C5.02739 10.2828 5.024 10.3224 4.94232 10.2265C5.0856 9.85625 4.99398 9.86338 4.94247 9.42429C4.95322 9.37782 5.05026 9.3906 5.061 9.34413C5.09034 9.2173 4.98736 9.23731 5.01672 9.10338C5.03936 9.0001 5.12015 9.0745 5.14119 8.97853Z" fill="black" fill-opacity="0.52"/>
<path fill-rule="evenodd" clip-rule="evenodd" d="M67.9278 20.2876C68.3921 19.4977 68.4092 19.4368 68.4547 19.4976C68.6707 19.7865 67.7281 20.8868 67.7632 20.3773C67.7642 20.3624 67.7632 20.3773 67.9278 20.2876Z" fill="black" fill-opacity="0.79"/>
<path fill-rule="evenodd" clip-rule="evenodd" d="M50.0054 10.304C49.8396 10.0594 49.8403 10.0612 49.8264 10.0398C49.5978 9.68695 50.1995 9.89007 50.2759 10.3944C50.4356 11.449 50.0117 10.3259 50.0054 10.304Z" fill="black" fill-opacity="0.97"/>
<path fill-rule="evenodd" clip-rule="evenodd" d="M73.8415 10.9439C74.0578 11.3242 74.0375 11.3841 74.4705 11.4531C75.1598 11.563 74.3962 11.6229 74.3809 11.6222C73.8669 11.596 73.8723 11.5051 73.7186 11.0133L73.8415 10.9439L73.8415 10.9439Z" fill="black" fill-opacity="0.77"/>
<path fill-rule="evenodd" clip-rule="evenodd" d="M89.5987 20.3049C89.8435 20.0483 89.8816 20.0769 89.9903 19.7384C90.1974 19.0934 90.3277 20.2448 89.6701 20.4361C89.6463 20.3924 89.6225 20.3487 89.5987 20.3049Z" fill="black" fill-opacity="0.87"/>
<path fill-rule="evenodd" clip-rule="evenodd" d="M39.6011 19.5087C39.7021 19.445 39.7389 19.4542 39.743 19.585C39.7687 20.3922 38.8202 20.2446 39.1613 20.0657C39.5026 19.8867 39.4798 19.8658 39.6011 19.5087Z" fill="black" fill-opacity="0.9"/>
<path fill-rule="evenodd" clip-rule="evenodd" d="M19.0847 8.89036C19.1507 8.99636 19.1421 8.97897 19.4034 9.35C19.6158 9.65146 19.2737 9.43237 18.8138 9.21173C18.8161 8.96708 18.8489 8.96499 19.0847 8.89036Z" fill="black" fill-opacity="0.3"/>
<path fill-rule="evenodd" clip-rule="evenodd" d="M26.3067 11.8038C26.337 11.8778 26.3478 11.8514 26.7618 12.6938C26.2887 12.8361 26.4669 12.5032 26.2102 12.0696C26.2424 11.981 26.2745 11.8924 26.3067 11.8038Z" fill="black" fill-opacity="0.8"/>
<path fill-rule="evenodd" clip-rule="evenodd" d="M19.2212 9.88C19.21 9.9309 19.0475 10.6652 18.656 10.2043C18.59 10.1266 18.5653 9.69144 18.8365 10.0049C18.9972 10.1907 18.9921 9.94727 19.2212 9.88Z" fill="black" fill-opacity="0.04"/>
<path fill-rule="evenodd" clip-rule="evenodd" d="M25.411 15.0629C25.4615 15.1231 25.512 15.1833 25.5625 15.2434C25.4585 15.4922 25.6297 15.7362 25.1375 15.7619C25.254 15.3946 25.236 15.4098 25.411 15.0629Z" fill="black" fill-opacity="0.45"/>
<path fill-rule="evenodd" clip-rule="evenodd" d="M80.7076 9.59531C81.1245 9.09389 80.9032 7.82492 81.0505 8.62806C81.2221 9.56318 80.9123 9.57986 80.7076 9.59531Z" fill="black" fill-opacity="0.85"/>
<path fill-rule="evenodd" clip-rule="evenodd" d="M45.4876 6.63246C45.2054 5.8667 45.1671 5.86158 45.218 5.78237C45.4043 5.49224 45.5842 6.52727 45.5965 6.59816L45.4876 6.63246Z" fill="black" fill-opacity="0.93"/>
<path fill-rule="evenodd" clip-rule="evenodd" d="M59.2071 11.6547C59.5584 11.5411 59.5154 11.4926 59.7263 11.2001C59.8962 10.9645 59.9745 11.9336 59.2035 11.7777C59.1939 11.7757 59.2035 11.7777 59.2071 11.6547Z" fill="black" fill-opacity="0.74"/>
<path fill-rule="evenodd" clip-rule="evenodd" d="M44.6626 4.12281C44.6966 4.05225 45.0744 3.26882 45.1443 3.27029C45.2202 3.2719 45.3279 3.36652 44.7934 4.15146L44.6626 4.12281H44.6626Z" fill="black" fill-opacity="0.69"/>
<path fill-rule="evenodd" clip-rule="evenodd" d="M16.2169 7.95128C16.3436 8.58916 15.828 8.87458 15.9309 8.54552C16.0377 8.20388 15.8911 8.11504 16.2169 7.95128Z" fill="black" fill-opacity="0.8"/>
<path fill-rule="evenodd" clip-rule="evenodd" d="M19.5731 10.3018C19.7219 11.0449 19.0132 11.1362 19.1551 10.9201C19.1897 10.8675 19.26 10.8492 19.306 10.8062C19.4229 10.6967 19.3189 10.6783 19.3317 10.5522C19.4602 10.4489 19.4437 10.4483 19.5731 10.3018V10.3018Z" fill="black" fill-opacity="0.75"/>
<path fill-rule="evenodd" clip-rule="evenodd" d="M19.0853 8.89042C18.8496 8.96506 18.8168 8.96715 18.8145 9.2118C18.3488 9.28401 18.6959 8.5895 19.0853 8.89042Z" fill="black" fill-opacity="0.12"/>
<path fill-rule="evenodd" clip-rule="evenodd" d="M37.6365 13.5524C37.6891 13.5394 39.1668 13.1746 38.3098 13.6249C38.2471 13.6578 38.2523 13.6436 37.7162 13.6615C37.6896 13.6251 37.663 13.5887 37.6365 13.5524Z" fill="black" fill-opacity="0.32"/>
<path fill-rule="evenodd" clip-rule="evenodd" d="M74.1515 18.1248C74.2305 18.5504 74.1914 18.5361 74.1617 18.9745L74.0302 18.8787C74.0324 18.4816 74.0133 18.4848 74.1515 18.1248Z" fill="black" fill-opacity="0.79"/>
<path fill-rule="evenodd" clip-rule="evenodd" d="M7.60731 13.7659L7.65696 13.7399C7.78879 13.8888 7.76602 13.897 7.7772 13.9093C7.59277 14.345 7.46723 14.0669 7.40322 13.9319C7.52086 13.8534 7.49779 13.8405 7.60728 13.7659H7.60731Z" fill="black" fill-opacity="0.18"/>
<path fill-rule="evenodd" clip-rule="evenodd" d="M50.6025 19.7332C50.4333 19.5998 50.3571 19.6054 50.4643 19.421C50.4899 19.377 50.993 19.2389 50.6025 19.7332Z" fill="black" fill-opacity="0.98"/>
<path fill-rule="evenodd" clip-rule="evenodd" d="M14.2564 16.5469C14.3127 16.5783 14.369 16.6098 14.4253 16.6413C14.4359 16.6776 14.9548 18.4651 14.42 17.1139C14.4026 17.07 14.4585 17.0717 14.2564 16.5469Z" fill="black" fill-opacity="0.8"/>
<path fill-rule="evenodd" clip-rule="evenodd" d="M21.0639 3.13596C21.0894 3.15781 21.339 3.37191 21.3748 3.41754C21.6401 3.75554 20.9735 3.2892 20.9436 3.26827C20.9837 3.22417 21.0238 3.18007 21.0639 3.13596Z" fill="black" fill-opacity="0.42"/>
<path fill-rule="evenodd" clip-rule="evenodd" d="M17.8539 9.87047C17.8948 10.0595 17.9465 10.036 17.9288 10.2167C17.9288 10.2167 17.9456 10.3842 17.947 10.3987L17.9423 10.5015C17.6982 10.267 17.7532 10.2332 17.8539 9.87047Z" fill="black" fill-opacity="0.75"/>
<path fill-rule="evenodd" clip-rule="evenodd" d="M89.5987 20.3049C89.6225 20.3486 89.6463 20.3923 89.6701 20.436C89.2067 20.4558 89.1949 20.4499 89.1581 20.4318C89.0202 20.3636 89.2885 20.3033 89.5987 20.3049Z" fill="black" fill-opacity="0.2"/>
<path fill-rule="evenodd" clip-rule="evenodd" d="M22.6488 9.06876C22.6444 9.3046 22.5537 9.23165 22.542 9.22225C22.5277 9.21072 22.2977 8.44957 22.6488 9.06876Z" fill="black" fill-opacity="0.49"/>
<path fill-rule="evenodd" clip-rule="evenodd" d="M37.6358 13.5525C37.6624 13.5889 37.689 13.6253 37.7155 13.6616C37.5938 13.8041 37.6079 13.8419 37.5404 13.8197C37.5189 13.8127 37.3453 13.7557 37.6358 13.5525Z" fill="black" fill-opacity="0.87"/>
<path fill-rule="evenodd" clip-rule="evenodd" d="M45.4871 6.63252L45.5961 6.59822C45.6555 6.8443 45.6898 6.84448 45.6385 6.92889C45.5028 7.15213 45.5637 6.87593 45.4871 6.63252Z" fill="black" fill-opacity="0.33"/>
<path fill-rule="evenodd" clip-rule="evenodd" d="M85.5825 9.17489C85.5942 9.18019 86.1999 9.57935 85.6004 9.33455C85.5944 9.28133 85.5885 9.22811 85.5825 9.17489Z" fill="black" fill-opacity="0.35"/>
<path fill-rule="evenodd" clip-rule="evenodd" d="M62.8727 8.99098L63.0061 9.00634C63.0982 9.50932 62.875 9.00145 62.8727 8.99098Z" fill="black" fill-opacity="0.09"/>
<path fill-rule="evenodd" clip-rule="evenodd" d="M19.5214 0.840116L19.5555 1.00306C19.4123 0.849487 19.1594 0.886485 19.353 0.785879C19.3586 0.782977 19.3792 0.772231 19.4317 0.789139C19.4645 0.79968 19.4887 0.8296 19.5214 0.840116Z" fill="black" fill-opacity="0.36"/>
<path fill-rule="evenodd" clip-rule="evenodd" d="M76.0969 4.48203C75.8171 4.66139 75.9086 4.42466 75.9175 4.41208C75.9801 4.32375 75.9856 4.3914 76.0969 4.48203Z" fill="black" fill-opacity="0.68"/>
<path fill-rule="evenodd" clip-rule="evenodd" d="M66.5154 9.77351C66.5488 9.82179 66.5821 9.87004 66.6155 9.91832C66.3956 9.86482 66.4057 9.87979 66.3956 9.86482C66.3322 9.77104 66.4358 9.83419 66.5154 9.77351Z" fill="black" fill-opacity="0.27"/>
<path fill-rule="evenodd" clip-rule="evenodd" d="M44.6624 4.12267L44.7932 4.15132C44.7184 4.25633 44.6535 4.24255 44.6624 4.12267Z" fill="black" fill-opacity="0.51"/>
<path fill-rule="evenodd" clip-rule="evenodd" d="M13.5963 8.98741C13.4579 9.05763 13.4688 9.04503 13.4456 9.07373C13.5375 8.87157 13.5198 8.87129 13.5375 8.87157C13.622 8.87297 13.511 8.98598 13.5963 8.98741Z" fill="black" fill-opacity="0.53"/>
<path fill-rule="evenodd" clip-rule="evenodd" d="M22.7216 4.7484C22.7902 4.82204 22.7851 4.8185 22.779 4.91862C22.7599 4.86189 22.7407 4.80513 22.7216 4.7484Z" fill="black" fill-opacity="0.78"/>
<path fill-rule="evenodd" clip-rule="evenodd" d="M24.738 16.8436C24.7789 16.8948 24.7748 16.877 24.8892 16.9121C24.7859 16.9259 24.7821 16.9358 24.738 16.8436Z" fill="black" fill-opacity="0.62"/>
<path fill-rule="evenodd" clip-rule="evenodd" d="M9.62868 3.76511C9.7205 3.76702 9.71681 3.7702 9.71711 3.85798L9.62868 3.76511Z" fill="black" fill-opacity="0.58"/>
<path fill-rule="evenodd" clip-rule="evenodd" d="M17.919 12.7148C17.9428 12.7468 17.9667 12.7789 17.9905 12.8109C17.9341 12.7955 17.8777 12.7802 17.8213 12.7649L17.919 12.7148Z" fill="black" fill-opacity="0.4"/>
<path fill-rule="evenodd" clip-rule="evenodd" d="M13.64 15.2469C13.6921 15.0815 13.6782 15.0817 13.6921 15.0815C13.8244 15.0795 13.6783 15.1254 13.64 15.2469Z" fill="black" fill-opacity="0.85"/>
<path fill-rule="evenodd" clip-rule="evenodd" d="M3.19461 9.77888C3.18783 9.96151 3.20174 9.96601 3.18783 9.96151C3.17393 9.957 3.18783 9.96151 3.19461 9.77888Z" fill="black" fill-opacity="0.13"/>
<path fill-rule="evenodd" clip-rule="evenodd" d="M68.7966 5.70995C68.7627 5.79512 68.7551 5.78175 68.6639 5.769C68.7032 5.7487 68.6975 5.7858 68.728 5.77004C68.7345 5.76668 68.728 5.77004 68.7966 5.70995Z" fill="black" fill-opacity="0.41"/>
<path fill-rule="evenodd" clip-rule="evenodd" d="M73.8415 10.9439L73.7186 11.0133C73.7498 10.9307 73.7567 10.9428 73.8415 10.9439Z" fill="black" fill-opacity="0.33"/>
<path fill-rule="evenodd" clip-rule="evenodd" d="M17.9185 12.7147L17.8208 12.7647L17.7949 12.7827C17.8323 12.6943 17.8334 12.7135 17.9185 12.7147Z" fill="black" fill-opacity="0.36"/>
<path fill-rule="evenodd" clip-rule="evenodd" d="M20.4192 7.04297C20.4081 7.12642 20.406 7.11527 20.3242 7.11407L20.4192 7.04297Z" fill="black" fill-opacity="0.16"/>
<path fill-rule="evenodd" clip-rule="evenodd" d="M84.0088 8.34694L83.9286 8.44918C83.9553 8.41511 83.982 8.38101 84.0088 8.34694Z" fill="black" fill-opacity="0.39"/>
</svg>
